<svg width="35" height="44" fill="none" xmlns="http://www.w3.org/2000/svg"><path d="M20 0H3C1 0 0 1 0 3v38c0 2 1 3 3 3h29c2 0 3-1 3-3V15c0-2-1-3-2-4l-9-9c-1-1-2-2-4-2z" fill="#E66D17"/><path d="M21 3v9c0 1.5.5 2 2 2h9L21 3z" fill="#F2D291"/><path d="M8 28.238c.314-.06.657-.104 1.03-.134.381-.037.758-.056 1.132-.056.388 0 .776.034 1.164.1.396.06.75.187 1.064.381.314.187.568.452.762.796.202.336.302.776.302 1.321 0 .493-.086.911-.257 1.255-.172.336-.4.612-.683.829a2.75 2.75 0 01-.975.47 4.268 4.268 0 01-1.12.145h-.437l-.268-.022a1.925 1.925 0 01-.18-.022V36H8v-7.762zm2.285 1.131c-.15 0-.291.008-.426.023a2.711 2.711 0 00-.325.034v2.542c.03.007.075.015.135.022l.19.023H10.195c.202 0 .4-.019.594-.056.201-.038.38-.105.537-.202.157-.104.28-.246.37-.425.097-.18.146-.415.146-.706 0-.246-.045-.448-.135-.605a1.068 1.068 0 00-.358-.392 1.32 1.32 0 00-.493-.201 2.9 2.9 0 00-.571-.056zM15.081 28.16c.157-.023.333-.041.527-.056a15.864 15.864 0 011.22-.045c.202-.007.381-.011.538-.011.695 0 1.288.097 1.781.291.493.194.892.467 1.198.818.306.35.53.769.672 1.254.142.485.213 1.02.213 1.602 0 .53-.067 1.041-.201 1.534-.135.493-.359.93-.672 1.31-.314.381-.728.687-1.244.919-.507.231-1.138.347-1.892.347a20.532 20.532 0 01-1.098-.045c-.21-.007-.41-.018-.605-.033a4.199 4.199 0 01-.437-.034V28.16zm2.408 1.254c-.164 0-.332.004-.504.011a2.98 2.98 0 00-.37.034v5.253c.03.007.08.015.146.022.075 0 .153.004.236.011.082 0 .16.004.235.012h.168c.433 0 .791-.075 1.075-.224.291-.157.519-.363.683-.616a2.4 2.4 0 00.359-.874c.067-.336.1-.68.1-1.03 0-.306-.03-.613-.09-.919a2.26 2.26 0 00-.335-.84 1.814 1.814 0 00-.65-.605c-.276-.156-.627-.235-1.053-.235zM23.005 28.16h4.648v1.366h-3.114v1.938h2.867v1.366H24.54V36h-1.534v-7.84z" fill="#fff"/></svg>