<svg width="35" height="44" fill="none" xmlns="http://www.w3.org/2000/svg"><path d="M20 0H3C1 0 0 1 0 3v38c0 2 1 3 3 3h29c2 0 3-1 3-3V15c0-2-1-3-2-4l-9-9c-1-1-2-2-4-2z" fill="#B3B3B3"/><path d="M7.2 28.16c.156-.023.331-.041.526-.056a16.273 16.273 0 011.22-.045c.202-.008.381-.011.538-.011.694 0 1.288.097 1.78.29a3.03 3.03 0 011.2.819c.305.35.53.769.671 1.254.142.485.213 1.02.213 1.602 0 .53-.067 1.041-.202 1.534-.134.493-.358.93-.672 1.31-.313.381-.728.687-1.243.919-.508.231-1.138.347-1.893.347a19.905 19.905 0 01-1.098-.045c-.208-.007-.41-.019-.604-.034a4.146 4.146 0 01-.437-.033V28.16zm2.407 1.254c-.164 0-.332.004-.504.011a3.02 3.02 0 00-.37.034v5.253c.03.007.079.015.146.022.075 0 .153.004.235.011.083 0 .16.004.236.012h.168c.433 0 .791-.075 1.075-.224.291-.157.519-.363.683-.617.172-.253.291-.544.358-.873.068-.336.101-.68.101-1.03 0-.307-.03-.613-.09-.919a2.257 2.257 0 00-.335-.84 1.813 1.813 0 00-.65-.605c-.276-.157-.627-.235-1.053-.235zM14.876 32.08c0-1.307.288-2.311.863-3.013.575-.71 1.396-1.064 2.464-1.064.56 0 1.049.097 1.467.291.418.194.765.47 1.042.829.276.358.481.788.616 1.288.134.5.201 1.056.201 1.669 0 1.306-.291 2.314-.873 3.024-.575.702-1.393 1.053-2.453 1.053-.568 0-1.06-.097-1.479-.292a2.763 2.763 0 01-1.041-.829 3.738 3.738 0 01-.605-1.288 6.429 6.429 0 01-.202-1.668zm1.613 0c0 .395.034.761.101 1.097.067.329.168.613.302.852.142.238.321.425.538.56.216.134.474.201.773.201.545 0 .967-.213 1.265-.638.299-.426.448-1.117.448-2.072 0-.381-.033-.736-.1-1.064a2.861 2.861 0 00-.292-.863 1.5 1.5 0 00-.526-.57c-.217-.143-.482-.214-.795-.214-.545 0-.967.22-1.266.661-.299.433-.448 1.116-.448 2.05zM28.607 35.675c-.24.172-.545.295-.919.37a5.64 5.64 0 01-1.13.111c-.471 0-.92-.07-1.345-.212a2.96 2.96 0 01-1.109-.706c-.32-.328-.578-.75-.773-1.266-.186-.522-.28-1.153-.28-1.892 0-.77.105-1.411.314-1.927.217-.522.493-.94.829-1.254a3.013 3.013 0 011.142-.683 3.885 3.885 0 011.255-.213c.448 0 .825.03 1.13.09.314.06.572.13.774.212l-.303 1.3a2.227 2.227 0 00-.616-.18 5.467 5.467 0 00-.85-.056c-.62 0-1.12.22-1.502.661-.373.44-.56 1.124-.56 2.05 0 .403.045.773.135 1.108.09.33.224.613.403.852.187.231.414.414.683.549.276.127.594.19.952.19.336 0 .62-.034.851-.1.232-.068.433-.154.605-.259l.314 1.255z" fill="#fff"/><path d="M21 3v9c0 1.5.5 2 2 2h9L21 3z" fill="#E6E6E6"/></svg>