<svg width="35" height="44" fill="none" xmlns="http://www.w3.org/2000/svg"><path d="M20 0H3C1 0 0 1 0 3v38c0 2 1 3 3 3h29c2 0 3-1 3-3V15c0-2-1-3-2-4l-9-9c-1-1-2-2-4-2z" fill="#E66D17"/><path d="M7.2 28.16a8.17 8.17 0 01.526-.056 16.274 16.274 0 011.221-.045c.202-.007.381-.011.538-.011.694 0 1.288.097 1.78.291a3.03 3.03 0 011.199.818c.306.35.53.769.672 1.254.142.485.213 1.02.213 1.602 0 .53-.067 1.041-.202 1.534-.134.493-.358.93-.672 1.31-.313.381-.728.687-1.243.919-.508.231-1.139.347-1.893.347a20.552 20.552 0 01-1.098-.045c-.208-.007-.41-.018-.604-.033a4.202 4.202 0 01-.437-.034V28.16zm2.408 1.254c-.164 0-.332.004-.504.011a3.02 3.02 0 00-.37.034v5.253c.03.007.079.015.146.022.075 0 .153.004.235.011.082 0 .16.004.235.012h.168c.433 0 .792-.075 1.076-.224.29-.157.519-.362.683-.616a2.4 2.4 0 00.358-.874c.067-.336.101-.68.101-1.03 0-.306-.03-.613-.09-.919a2.257 2.257 0 00-.336-.84 1.813 1.813 0 00-.65-.605c-.276-.156-.626-.235-1.052-.235zM14.877 32.08c0-1.307.288-2.311.863-3.013.574-.71 1.396-1.064 2.464-1.064.56 0 1.049.097 1.467.291.418.194.765.47 1.041.83.277.358.482.787.616 1.287.135.5.202 1.057.202 1.669 0 1.307-.291 2.315-.874 3.024-.575.702-1.392 1.053-2.452 1.053-.568 0-1.06-.097-1.479-.291a2.763 2.763 0 01-1.041-.83 3.738 3.738 0 01-.605-1.287 6.43 6.43 0 01-.202-1.67zm1.613 0c0 .396.034.762.1 1.098.068.328.169.612.303.85.142.24.321.426.538.56.216.135.474.202.773.202.545 0 .966-.212 1.265-.638.299-.426.448-1.116.448-2.072 0-.38-.033-.736-.1-1.064a2.861 2.861 0 00-.292-.862 1.5 1.5 0 00-.526-.572c-.217-.142-.482-.213-.795-.213-.546 0-.967.22-1.266.661-.299.433-.448 1.117-.448 2.05zM28.608 35.675c-.24.172-.546.295-.919.37a5.64 5.64 0 01-1.131.112c-.47 0-.918-.071-1.344-.213a2.96 2.96 0 01-1.109-.706c-.321-.328-.579-.75-.773-1.265-.186-.523-.28-1.154-.28-1.893 0-.77.105-1.411.314-1.926.216-.523.493-.941.829-1.255a3.011 3.011 0 011.142-.683 3.883 3.883 0 011.255-.213c.448 0 .825.03 1.13.09.314.06.572.13.773.212l-.302 1.3a2.224 2.224 0 00-.616-.18 5.467 5.467 0 00-.851-.056c-.62 0-1.12.22-1.5.661-.374.44-.56 1.124-.56 2.05 0 .403.044.773.133 1.109.09.328.224.612.404.85.186.232.414.415.683.55.276.127.594.19.952.19.336 0 .62-.034.851-.1a2.5 2.5 0 00.605-.258l.314 1.254z" fill="#fff"/><path d="M21 3v9c0 1.5.5 2 2 2h9L21 3z" fill="#F2D291"/></svg>